<svg data-v-fde0c5aa="" xmlns="http://www.w3.org/2000/svg" viewBox="0 0 300 300" class="iconAbove"><!----><defs data-v-fde0c5aa=""><linearGradient data-v-fde0c5aa="" gradientTransform="rotate(25)" id="6dd4c4b5-4b01-441e-9097-5ceb73d3fbe4" x1="0%" y1="0%" x2="100%" y2="0%"><stop data-v-fde0c5aa="" offset="0%" stop-color="#8E42D3" stop-opacity="1"></stop><stop data-v-fde0c5aa="" offset="100%" stop-color="#D46975" stop-opacity="1"></stop></linearGradient></defs><rect data-v-fde0c5aa="" fill="url(#6dd4c4b5-4b01-441e-9097-5ceb73d3fbe4)" x="0" y="0" width="300px" height="300px" class="logo-background-square"></rect><defs data-v-fde0c5aa=""><!----></defs><g data-v-fde0c5aa="" id="43b27a7f-f7e9-43fe-9c4c-a8cfa4882e67" fill="#ffffff" transform="matrix(3.9628105103077647,0,0,3.9628105103077647,17.186404622714175,163.00243763281088)"><path d="M7.59 3.92L5.66 3.92L5.66 9.81C5.66 10.21 5.66 10.53 5.64 10.84C5.56 11.76 5.11 12.33 4.21 12.33C3.30 12.33 2.74 11.84 2.67 10.56L2.65 10.07L0.71 10.07L0.73 10.56C0.78 12.53 1.86 13.78 4.10 13.78C6.40 13.78 7.45 12.61 7.55 10.95C7.59 10.33 7.59 10.02 7.59 9.62ZM14.71 10.67L15.67 13.58L17.77 13.58L14.35 3.92L11.93 3.92L8.44 13.58L10.50 13.58L11.47 10.67ZM13.10 5.57L14.22 9.14L11.96 9.14ZM27.43 13.58L27.41 3.92L25.49 3.92L25.49 8.36C25.49 9.18 25.51 10.36 25.56 11.40L21.50 3.92L18.94 3.92L18.94 13.58L20.87 13.58L20.87 9.21C20.87 8.40 20.86 7.29 20.80 6.24L24.78 13.58ZM40.00 3.92L37.00 3.92L34.82 11.80L32.63 3.92L29.58 3.92L29.58 13.58L31.51 13.58L31.51 9.11C31.51 8.11 31.51 6.83 31.49 5.82C31.71 6.82 32.06 8.11 32.35 9.09L33.74 13.58L35.84 13.58L37.20 9.10C37.51 8.11 37.86 6.82 38.09 5.81C38.07 6.82 38.07 8.11 38.07 9.11L38.07 13.58L40.00 13.58ZM48.48 3.92L46.55 3.92L46.55 9.81C46.55 10.21 46.55 10.53 46.54 10.84C46.45 11.76 46.00 12.33 45.11 12.33C44.20 12.33 43.64 11.84 43.57 10.56L43.54 10.07L41.61 10.07L41.62 10.56C41.68 12.53 42.76 13.78 45.00 13.78C47.29 13.78 48.34 12.61 48.44 10.95C48.48 10.33 48.48 10.02 48.48 9.62ZM55.61 10.67L56.56 13.58L58.66 13.58L55.24 3.92L52.82 3.92L49.34 13.58L51.39 13.58L52.36 10.67ZM54.00 5.57L55.12 9.14L52.85 9.14ZM62.90 9.84L66.32 3.92L64.19 3.92L62.01 8.13L59.75 3.92L57.57 3.92L60.98 9.84L60.98 13.58L62.90 13.58Z"></path></g><defs data-v-fde0c5aa=""><!----></defs><g data-v-fde0c5aa="" id="bf293411-a45e-4a0b-82f5-a8b97876ca79" stroke="none" fill="#ffffff" transform="matrix(2.4420818919444716,0,0,2.4420818919444716,110.92668972888845,82.39003459333269)"><path d="M16 32c8.837 0 16-7.163 16-16S24.837 0 16 0 0 7.163 0 16s7.163 16 16 16zM14.817 6.421h2v8.886h8.887v2H14.817V6.421zm-5.959.437h2v14.283h14.283v2H8.858V6.858z"></path></g><!----></svg>